{
  "accessors": [
    {
      "bufferView": 2,
      "componentType": 5126,
      "count": 5059,
      "max": [
        2.3868105411529541,
        0.64959877729415894,
        1.0285779237747192
      ],
      "min": [
        -2.3867952823638916,
        -0.88657921552658081,
        -3.0844666957855225
      ],
      "type": "VEC3"
    },
    {
      "bufferView": 2,
      "byteOffset": 60708,
      "componentType": 5126,
      "count": 5059,
      "max": [
        0.99999988079071045,
        0.99999856948852539,
        0.99999988079071045
      ],
      "min": [
        -0.99999988079071045,
        -0.99999904632568359,
        -1
      ],
      "type": "VEC3"
    },
    {
      "bufferView": 1,
      "componentType": 5126,
      "count": 5059,
      "max": [
        1.0000001192092896,
        0.94006901979446411
      ],
      "min": [
        0,
        0
      ],
      "type": "VEC2"
    },
    {
      "bufferView": 0,
      "componentType": 5125,
      "count": 16920,
      "max": [
        5058
      ],
      "min": [
        0
      ],
      "type": "SCALAR"
    },
    {
      "bufferView": 2,
      "byteOffset": 121416,
      "componentType": 5126,
      "count": 2001,
      "max": [
        2.143012523651123,
        0.56580471992492676,
        0.045767132192850113
      ],
      "min": [
        -2.1430115699768066,
        -0.81227731704711914,
        -0.046163421124219894
      ],
      "type": "VEC3"
    },
    {
      "bufferView": 2,
      "byteOffset": 145428,
      "componentType": 5126,
      "count": 2001,
      "max": [
        0.9999995231628418,
        0.99978148937225342,
        0.99999964237213135
      ],
      "min": [
        -0.9999995231628418,
        -0.9999309778213501,
        -0.99999964237213135
      ],
      "type": "VEC3"
    },
    {
      "bufferView": 1,
      "byteOffset": 40472,
      "componentType": 5126,
      "count": 2001,
      "max": [
        0.98858094215393066,
        0.99999672174453735
      ],
      "min": [
        0.0013047875836491585,
        0.0023852093145251274
      ],
      "type": "VEC2"
    },
    {
      "bufferView": 0,
      "byteOffset": 67680,
      "componentType": 5125,
      "count": 7200,
      "max": [
        2000
      ],
      "min": [
        0
      ],
      "type": "SCALAR"
    },
    {
      "bufferView": 2,
      "byteOffset": 169440,
      "componentType": 5126,
      "count": 5059,
      "max": [
        2.3868105411529541,
        0.64959877729415894,
        1.0285779237747192
      ],
      "min": [
        -2.3867952823638916,
        -0.88657921552658081,
        -3.0844666957855225
      ],
      "type": "VEC3"
    },
    {
      "bufferView": 2,
      "byteOffset": 230148,
      "componentType": 5126,
      "count": 5059,
      "max": [
        0.99999988079071045,
        0.99999856948852539,
        0.99999988079071045
      ],
      "min": [
        -0.99999988079071045,
        -0.99999904632568359,
        -1
      ],
      "type": "VEC3"
    },
    {
      "bufferView": 1,
      "byteOffset": 56480,
      "componentType": 5126,
      "count": 5059,
      "max": [
        1.0000001192092896,
        0.94006901979446411
      ],
      "min": [
        0,
        0
      ],
      "type": "VEC2"
    },
    {
      "bufferView": 0,
      "byteOffset": 96480,
      "componentType": 5125,
      "count": 16920,
      "max": [
        5058
      ],
      "min": [
        0
      ],
      "type": "SCALAR"
    },
    {
      "bufferView": 2,
      "byteOffset": 290856,
      "componentType": 5126,
      "count": 2001,
      "max": [
        2.143012523651123,
        0.56580471992492676,
        0.045767132192850113
      ],
      "min": [
        -2.1430115699768066,
        -0.81227731704711914,
        -0.046163421124219894
      ],
      "type": "VEC3"
    },
    {
      "bufferView": 2,
      "byteOffset": 314868,
      "componentType": 5126,
      "count": 2001,
      "max": [
        0.9999995231628418,
        0.99978148937225342,
        0.99999964237213135
      ],
      "min": [
        -0.9999995231628418,
        -0.9999309778213501,
        -0.99999964237213135
      ],
      "type": "VEC3"
    },
    {
      "bufferView": 1,
      "byteOffset": 96952,
      "componentType": 5126,
      "count": 2001,
      "max": [
        0.98858094215393066,
        0.99999672174453735
      ],
      "min": [
        0.0013047875836491585,
        0.0023852093145251274
      ],
      "type": "VEC2"
    },
    {
      "bufferView": 0,
      "byteOffset": 164160,
      "componentType": 5125,
      "count": 7200,
      "max": [
        2000
      ],
      "min": [
        0
      ],
      "type": "SCALAR"
    }
  ],
  "asset": {
    "extras": {
      "author": "ENOMIC (https://sketchfab.com/ENOMIC)",
      "license": "CC-BY-4.0 (http://creativecommons.org/licenses/by/4.0/)",
      "source": "https://sketchfab.com/3d-models/glasses-sun-glasses-free-229dcc6df0404aa7a30083b12bf3a85e",
      "title": "Glasses & Sun Glasses (Free)"
    },
    "generator": "Sketchfab-9.27.2",
    "version": "2.0"
  },
  "bufferViews": [
    {
      "buffer": 0,
      "byteLength": 192960,
      "byteOffset": 0,
      "name": "floatBufferViews",
      "target": 34963
    },
    {
      "buffer": 0,
      "byteLength": 112960,
      "byteOffset": 192960,
      "byteStride": 8,
      "name": "floatBufferViews",
      "target": 34962
    },
    {
      "buffer": 0,
      "byteLength": 338880,
      "byteOffset": 305920,
      "byteStride": 12,
      "name": "floatBufferViews",
      "target": 34962
    }
  ],
  "buffers": [
    {
      "byteLength": 644800,
      "uri": "scene.bin"
    }
  ],
  "materials": [
    {
      "doubleSided": true,
      "emissiveFactor": [
        0,
        0,
        0
      ],
      "name": "Frame",
      "pbrMetallicRoughness": {
        "baseColorFactor": [
          0,
          0,
          0,
          1
        ],
        "metallicFactor": 0.26666699999999999,
        "roughnessFactor": 0.59999999999999998
      }
    },
    {
      "alphaMode": "BLEND",
      "doubleSided": true,
      "emissiveFactor": [
        0.0063703600000000003,
        0.0063703600000000003,
        0.0063703600000000003
      ],
      "name": "Lens",
      "pbrMetallicRoughness": {
        "baseColorFactor": [
          0.80000000000000004,
          0.80000000000000004,
          0.80000000000000004,
          0.0050000000000000001
        ],
        "metallicFactor": 0.47499999999999998,
        "roughnessFactor": 0.091666700000000004
      }
    },
    {
      "alphaMode": "BLEND",
      "doubleSided": true,
      "emissiveFactor": [
        0,
        0,
        0
      ],
      "name": "Shade_Lens",
      "pbrMetallicRoughness": {
        "baseColorFactor": [
          0,
          0,
          0,
          0.29999999999999999
        ],
        "metallicFactor": 0.47499999999999998,
        "roughnessFactor": 0.091666700000000004
      }
    }
  ],
  "meshes": [
    {
      "primitives": [
        {
          "attributes": {
            "NORMAL": 1,
            "POSITION": 0,
            "TEXCOORD_0": 2
          },
          "indices": 3,
          "material": 0,
          "mode": 4
        }
      ]
    },
    {
      "primitives": [
        {
          "attributes": {
            "NORMAL": 5,
            "POSITION": 4,
            "TEXCOORD_0": 6
          },
          "indices": 7,
          "material": 1,
          "mode": 4
        }
      ]
    },
    {
      "primitives": [
        {
          "attributes": {
            "NORMAL": 9,
            "POSITION": 8,
            "TEXCOORD_0": 10
          },
          "indices": 11,
          "material": 0,
          "mode": 4
        }
      ]
    },
    {
      "primitives": [
        {
          "attributes": {
            "NORMAL": 13,
            "POSITION": 12,
            "TEXCOORD_0": 14
          },
          "indices": 15,
          "material": 2,
          "mode": 4
        }
      ]
    }
  ],
  "nodes": [
    {
      "children": [
        1
      ],
      "name": "RootNode (gltf orientation matrix)",
      "rotation": [
        -0.70710678118654746,
        -0,
        -0,
        0.70710678118654757
      ]
    },
    {
      "children": [
        2
      ],
      "matrix": [
        0.15461196005344391,
        0,
        0,
        0,
        0,
        0.15461196005344391,
        0,
        0,
        0,
        0,
        0.15461196005344391,
        0,
        0,
        0,
        0,
        1
      ],
      "name": "RootNode (model correction matrix)"
    },
    {
      "children": [
        3
      ],
      "name": "root"
    },
    {
      "children": [
        4,
        8
      ],
      "matrix": [
        1,
        0,
        0,
        0,
        0,
        2.2204460492503131e-16,
        1,
        0,
        0,
        -1,
        2.2204460492503131e-16,
        0,
        0,
        0,
        0,
        1
      ],
      "name": "GLTF_SceneRootNode"
    },
    {
      "children": [
        5,
        6
      ],
      "matrix": [
        0.86602540168906872,
        0,
        -0.5000000036292872,
        0,
        0,
        1,
        0,
        0,
        0.5000000036292872,
        0,
        0.86602540168906872,
        0,
        -4.0000081062316895,
        0.73173409700393677,
        -0.92448645830154419,
        1
      ],
      "name": "Glasses_1"
    },
    {
      "mesh": 0,
      "name": ""
    },
    {
      "children": [
        7
      ],
      "matrix": [
        1,
        0,
        0,
        0,
        0,
        1,
        0,
        0,
        0,
        0,
        1,
        0,
        7.152557373046875e-06,
        -0.01443713903427124,
        0.95115888118743896,
        1
      ],
      "name": "Lens_0"
    },
    {
      "mesh": 1,
      "name": ""
    },
    {
      "children": [
        9,
        10
      ],
      "matrix": [
        0.86602540168906872,
        0,
        0.5000000036292872,
        0,
        0,
        1,
        0,
        0,
        -0.5000000036292872,
        0,
        0.86602540168906872,
        0,
        3.9999918937683105,
        0.73173409700393677,
        -0.92448645830154419,
        1
      ],
      "name": "Shade_3"
    },
    {
      "mesh": 2,
      "name": ""
    },
    {
      "children": [
        11
      ],
      "matrix": [
        1,
        0,
        0,
        0,
        0,
        1,
        0,
        0,
        0,
        0,
        1,
        0,
        7.3909759521484375e-06,
        -0.01443713903427124,
        0.95115888118743896,
        1
      ],
      "name": "Lens.001_2"
    },
    {
      "mesh": 3,
      "name": ""
    }
  ],
  "scene": 0,
  "scenes": [
    {
      "name": "OSG_Scene",
      "nodes": [
        0
      ]
    }
  ]
}

