{
  "accessors": [
    {
      "bufferView": 2,
      "componentType": 5126,
      "count": 349,
      "max": [
        131.24679565429688,
        227.43507385253906,
        18.10951042175293
      ],
      "min": [
        -131.24679565429688,
        120.56816101074219,
        -25.120016098022461
      ],
      "type": "VEC3"
    },
    {
      "bufferView": 2,
      "byteOffset": 4188,
      "componentType": 5126,
      "count": 349,
      "max": [
        0.99931645393371582,
        0.85502946376800537,
        0.7187952995300293
      ],
      "min": [
        -0.9993165135383606,
        -0.99999773502349854,
        -0.99998748302459717
      ],
      "type": "VEC3"
    },
    {
      "bufferView": 1,
      "componentType": 5126,
      "count": 349,
      "max": [
        1,
        1
      ],
      "min": [
        0,
        0
      ],
      "type": "VEC2"
    },
    {
      "bufferView": 0,
      "componentType": 5125,
      "count": 708,
      "max": [
        348
      ],
      "min": [
        0
      ],
      "type": "SCALAR"
    },
    {
      "bufferView": 2,
      "byteOffset": 8376,
      "componentType": 5126,
      "count": 372,
      "max": [
        123.72113037109375,
        1.6786068677902222,
        57.59814453125
      ],
      "min": [
        -123.72113037109375,
        -9.1388959884643555,
        -35.878040313720703
      ],
      "type": "VEC3"
    },
    {
      "bufferView": 2,
      "byteOffset": 12840,
      "componentType": 5126,
      "count": 372,
      "max": [
        0.97894006967544556,
        0.99999701976776123,
        0.94121807813644409
      ],
      "min": [
        -0.97894006967544556,
        -0.99999773502349854,
        -0.97385430335998535
      ],
      "type": "VEC3"
    },
    {
      "bufferView": 1,
      "byteOffset": 2792,
      "componentType": 5126,
      "count": 372,
      "max": [
        1,
        1
      ],
      "min": [
        0,
        0
      ],
      "type": "VEC2"
    },
    {
      "bufferView": 0,
      "byteOffset": 2832,
      "componentType": 5125,
      "count": 1128,
      "max": [
        371
      ],
      "min": [
        0
      ],
      "type": "SCALAR"
    },
    {
      "bufferView": 2,
      "byteOffset": 17304,
      "componentType": 5126,
      "count": 148,
      "max": [
        33.944278717041016,
        11.96201229095459,
        15.957221984863281
      ],
      "min": [
        -33.944278717041016,
        3.8595294952392578,
        -8.1473274230957031
      ],
      "type": "VEC3"
    },
    {
      "bufferView": 2,
      "byteOffset": 19080,
      "componentType": 5126,
      "count": 148,
      "max": [
        0.90661370754241943,
        0.88781636953353882,
        0.95894122123718262
      ],
      "min": [
        -0.90661370754241943,
        -0.89887827634811401,
        -0.86617791652679443
      ],
      "type": "VEC3"
    },
    {
      "bufferView": 0,
      "byteOffset": 7344,
      "componentType": 5125,
      "count": 504,
      "max": [
        147
      ],
      "min": [
        0
      ],
      "type": "SCALAR"
    },
    {
      "bufferView": 2,
      "byteOffset": 20856,
      "componentType": 5126,
      "count": 4983,
      "max": [
        129.54078674316406,
        121.30545806884766,
        58.2559814453125
      ],
      "min": [
        -129.54078674316406,
        -3.314730167388916,
        -36.335662841796875
      ],
      "type": "VEC3"
    },
    {
      "bufferView": 2,
      "byteOffset": 80652,
      "componentType": 5126,
      "count": 4983,
      "max": [
        1,
        0.99999803304672241,
        0.99999773502349854
      ],
      "min": [
        -1,
        -0.99999803304672241,
        -0.99999779462814331
      ],
      "type": "VEC3"
    },
    {
      "bufferView": 1,
      "byteOffset": 5768,
      "componentType": 5126,
      "count": 4983,
      "max": [
        1,
        1
      ],
      "min": [
        0,
        0
      ],
      "type": "VEC2"
    },
    {
      "bufferView": 0,
      "byteOffset": 9360,
      "componentType": 5125,
      "count": 18312,
      "max": [
        4982
      ],
      "min": [
        0
      ],
      "type": "SCALAR"
    }
  ],
  "asset": {
    "extras": {
      "author": "neutralize (https://sketchfab.com/cariaga.info)",
      "license": "CC-BY-4.0 (http://creativecommons.org/licenses/by/4.0/)",
      "source": "https://sketchfab.com/3d-models/glasses-d2aeb5f077d94322b64277d79e995f9d",
      "title": "Glasses"
    },
    "generator": "Sketchfab-9.80.0",
    "version": "2.0"
  },
  "bufferViews": [
    {
      "buffer": 0,
      "byteLength": 82608,
      "byteOffset": 0,
      "name": "floatBufferViews",
      "target": 34963
    },
    {
      "buffer": 0,
      "byteLength": 45632,
      "byteOffset": 82608,
      "byteStride": 8,
      "name": "floatBufferViews",
      "target": 34962
    },
    {
      "buffer": 0,
      "byteLength": 140448,
      "byteOffset": 128240,
      "byteStride": 12,
      "name": "floatBufferViews",
      "target": 34962
    }
  ],
  "buffers": [
    {
      "byteLength": 268688,
      "uri": "scene.bin"
    }
  ],
  "materials": [
    {
      "doubleSided": true,
      "emissiveFactor": [
        0,
        0,
        0
      ],
      "name": "material",
      "pbrMetallicRoughness": {
        "baseColorFactor": [
          0,
          0,
          0,
          1
        ],
        "metallicFactor": 0,
        "roughnessFactor": 0.73408520515275055
      }
    },
    {
      "doubleSided": true,
      "emissiveFactor": [
        0,
        0,
        0
      ],
      "name": "frame",
      "pbrMetallicRoughness": {
        "baseColorFactor": [
          0.80000000000000004,
          0.80000000000000004,
          0.80000000000000004,
          1
        ],
        "metallicFactor": 0,
        "roughnessFactor": 1
      }
    },
    {
      "alphaMode": "BLEND",
      "doubleSided": true,
      "emissiveFactor": [
        0,
        0,
        0
      ],
      "name": "lense",
      "pbrMetallicRoughness": {
        "baseColorFactor": [
          1,
          1,
          1,
          0.20000000000000001
        ],
        "metallicFactor": 0,
        "roughnessFactor": 0.683772233983162
      }
    },
    {
      "doubleSided": true,
      "emissiveFactor": [
        0,
        0,
        0
      ],
      "name": "nose",
      "pbrMetallicRoughness": {
        "baseColorFactor": [
          1,
          1,
          1,
          1
        ],
        "metallicFactor": 0,
        "roughnessFactor": 1
      }
    }
  ],
  "meshes": [
    {
      "primitives": [
        {
          "attributes": {
            "NORMAL": 1,
            "POSITION": 0,
            "TEXCOORD_0": 2
          },
          "indices": 3,
          "material": 0,
          "mode": 4
        }
      ]
    },
    {
      "primitives": [
        {
          "attributes": {
            "NORMAL": 5,
            "POSITION": 4,
            "TEXCOORD_0": 6
          },
          "indices": 7,
          "material": 2,
          "mode": 4
        }
      ]
    },
    {
      "primitives": [
        {
          "attributes": {
            "NORMAL": 9,
            "POSITION": 8
          },
          "indices": 10,
          "material": 3,
          "mode": 4
        }
      ]
    },
    {
      "primitives": [
        {
          "attributes": {
            "NORMAL": 12,
            "POSITION": 11,
            "TEXCOORD_0": 13
          },
          "indices": 14,
          "material": 1,
          "mode": 4
        }
      ]
    }
  ],
  "nodes": [
    {
      "children": [
        1
      ],
      "name": "RootNode (gltf orientation matrix)",
      "rotation": [
        -0.70710678118654746,
        -0,
        -0,
        0.70710678118654757
      ]
    },
    {
      "children": [
        2
      ],
      "name": "RootNode (model correction matrix)"
    },
    {
      "children": [
        3,
        4,
        5,
        6
      ],
      "name": "Sunglasses.obj.cleaner.materialmerger.gles"
    },
    {
      "mesh": 0,
      "name": ""
    },
    {
      "mesh": 1,
      "name": ""
    },
    {
      "mesh": 2,
      "name": ""
    },
    {
      "mesh": 3,
      "name": ""
    }
  ],
  "scene": 0,
  "scenes": [
    {
      "name": "OSG_Scene",
      "nodes": [
        0
      ]
    }
  ]
}

